<mxfile host="app.diagrams.net" modified="2023-11-04T13:14:24.538Z" agent="Mozilla/5.0 (Windows NT 6.3; Win64; x64) AppleWebKit/537.36 (KHTML, like Gecko) Chrome/109.0.0.0 Safari/537.36" etag="DeDq_x9bvDalGAMPcFiq" version="22.0.8" type="google">
  <diagram name="Strona-1" id="NlYXha1ovWQa7g6nUnQO">
    <mxGraphModel grid="1" page="1" gridSize="10" guides="1" tooltips="1" connect="1" arrows="1" fold="1" pageScale="1" pageWidth="827" pageHeight="1169" math="0" shadow="0">
      <root>
        <mxCell id="0" />
        <mxCell id="1" parent="0" />
        <mxCell id="vyV2zcldcA2wPxc2-iQG-2" value="Napisz pseudokod algorytmu który sprawdzi czy podane poprzez użytkownika 3 liczby mogą&#xa;być bokami trójkąta (Możemy zbudować trójkąt z 3 odcinków jeżeli każde 2 z nich są większe od&#xa;trzeciego)." style="text;whiteSpace=wrap;html=1;" vertex="1" parent="1">
          <mxGeometry x="20" y="10" width="560" height="70" as="geometry" />
        </mxCell>
        <mxCell id="vyV2zcldcA2wPxc2-iQG-3" value="Wprowadź liczbę a&lt;br&gt;Wprowadź liczbę b&lt;br&gt;Wprowadź liczbę c&lt;br&gt;&lt;br&gt;Jeżeli a &amp;gt; b + c&lt;br&gt;&lt;span style=&quot;white-space: pre;&quot;&gt;&#x9;&lt;/span&gt;lub b&amp;gt; a + c&lt;br&gt;&lt;span style=&quot;white-space: pre;&quot;&gt;&#x9;&lt;/span&gt;lub c &amp;gt; a + b&lt;br&gt;&lt;span style=&quot;white-space: pre;&quot;&gt;&#x9;&lt;/span&gt;napisz: może powstać trójkąt&lt;br&gt;w przeciwnym wypadku&lt;br&gt;&lt;span style=&quot;white-space: pre;&quot;&gt;&#x9;&lt;/span&gt;napisz: nie może powstać trójkąt&amp;nbsp;&lt;br&gt;&lt;br&gt;" style="text;html=1;align=left;verticalAlign=middle;resizable=0;points=[];autosize=1;strokeColor=none;fillColor=none;" vertex="1" parent="1">
          <mxGeometry x="160" y="85" width="230" height="170" as="geometry" />
        </mxCell>
      </root>
    </mxGraphModel>
  </diagram>
</mxfile>
